<svg width="580" height="160" version="1.1" viewBox="0 0 580 160" xmlns="http://www.w3.org/2000/svg">
 <g transform="translate(-25.476 -165.32)">
  <path d="m72.088 242.42 155.08-55.184-97.62 132.53z" fill="#98dfff"/>
  <path d="m52.782 234.46 155.08-55.184-97.62 132.53z" fill="#5dd2ff"/>
  <path d="m33.476 226.5 155.08-55.184-97.62 132.53z" fill="#00a9ff"/>
 </g>
 <g transform="translate(-25.476 -165.32)">
  <path d="m239.9 300.82h-12.508v-1.92q-4.3338 0.71316-8.7225 1.4263-5.3213 0.82288-8.7773 0.82288-6.8573 0-6.8573-6.8573v-48.879h12.453v44.984l11.904-0.27429v-44.71h12.508z"/>
  <path d="m283.85 293.97q0 6.8573-6.967 6.8573h-21.12q-6.967 0-6.967-6.8573v-11.904h12.014v9.3259h11.027v-8.7773l-19.255-11.356q-3.7852-2.2492-3.7852-6.0344v-12.947q0-6.8573 7.0767-6.8573h20.901q6.967 0 6.967 6.8573v11.136h-11.904v-8.5579h-11.027v8.0093l19.2 11.246q3.8401 2.1943 3.8401 6.1441z"/>
  <path d="m328.45 293.97q0 6.8573-7.0767 6.8573h-21.669q-7.0767 0-7.0767-6.8573v-41.692q0-6.8573 7.0767-6.8573h21.669q7.0767 0 7.0767 6.8573v20.352l-3.4561 3.4561h-20.352v15.525h11.795v-9.2162h12.014zm-12.014-26.058v-13.276h-11.795v13.276z"/>
  <path d="m373.26 226.32h-22.218v25.399h18.981v11.136h-18.981v37.962h-12.837v-85.853h35.055z"/>
  <path d="m416.44 293.97q0 6.8573-6.967 6.8573h-22.492q-7.0767 0-7.0767-6.8573v-41.692q0-6.8573 7.0767-6.8573h22.492q6.967 0 6.967 6.8573zm-12.288-3.5658v-34.506h-11.904v34.506z"/>
  <path d="m460.43 268.57h-12.453v-12.672l-9.9294 0.21943v44.71h-12.563v-55.407h12.563v2.0298q3.895-0.71316 7.735-1.4263 4.663-0.82288 7.7899-0.82288 6.8573 0 6.8573 6.7476z"/>
  <path d="m528.62 300.82h-12.453v-44.929l-11.795 0.21943v44.71h-12.508v-44.929l-11.795 0.21943v44.71h-12.563v-55.407h12.563v2.0298q4.3887-0.71316 8.7225-1.4263 5.3213-0.82288 8.8322-0.82288 4.3338 0 5.5956 2.4686 4.6081-0.71316 9.2162-1.4812 6.0893-0.98745 9.3259-0.98745 6.8573 0 6.8573 6.7476z"/>
  <path d="m550.4 237.46h-12.563v-12.947h12.563zm-0.10972 63.361h-12.343v-55.407h12.343z"/>
  <path d="m596.15 293.97q0 6.8573-6.967 6.8573h-22.492q-7.0767 0-7.0767-6.8573v-41.692q0-6.8573 7.0767-6.8573h22.492q6.967 0 6.967 6.8573zm-12.288-3.5658v-34.506h-11.904v34.506z"/>
 </g>
</svg>
